<?xml version="1.0" encoding="UTF-8"?><svg id="a" xmlns="http://www.w3.org/2000/svg" xmlns:xlink="http://www.w3.org/1999/xlink" viewBox="0 0 600 1901.09"><defs><style>.c{clip-path:url(#b);}.d{stroke:#fff;stroke-linecap:round;stroke-linejoin:round;stroke-width:8px;}.d,.e{fill:none;}</style><clipPath id="b"><rect class="e" y="135.63" width="600" height="1500"/></clipPath></defs><g class="c"><g><path class="d" d="M122.73,65.97V660.29c0,34.57,28.03,62.6,62.6,62.6h118.4c6.08,0,11,4.92,11,11v922.94"/><path class="d" d="M131.51,57.12V658.94c0,30.43,24.66,55.09,55.09,55.09h118.6c10.11,0,18.31,8.2,18.31,18.31v934.88"/><path class="d" d="M140.29,48.27V657.6c0,26.28,21.3,47.58,47.58,47.58h118.79c14.15,0,25.63,11.47,25.63,25.63v946.81"/><path class="d" d="M149.07,39.41V656.26c0,22.13,17.94,40.07,40.07,40.07h118.99c18.19,0,32.94,14.75,32.94,32.94v958.75"/><path class="d" d="M157.85,30.56V654.91c0,17.98,14.58,32.56,32.56,32.56h119.18c22.23,0,40.26,18.02,40.26,40.26v970.68"/><path class="d" d="M166.63,21.71V653.57c0,13.83,11.21,25.05,25.05,25.05h119.38c26.27,0,47.57,21.3,47.57,47.57v982.62"/><path class="d" d="M175.41,12.85V652.23c0,9.69,7.85,17.54,17.54,17.54h119.58c30.31,0,54.89,24.57,54.89,54.89v994.55"/><path class="d" d="M184.18,4V650.89c0,5.54,4.49,10.03,10.03,10.03h119.77c34.35,0,62.2,27.85,62.2,62.2v1006.49"/></g><g><path class="d" d="M218.73,1835.12v-594.31c0-34.57,28.03-62.6,62.6-62.6h118.4c6.08,0,11-4.92,11-11V119.89"/><path class="d" d="M227.51,1843.97v-601.82c0-30.43,24.66-55.09,55.09-55.09h118.6c10.11,0,18.31-8.2,18.31-18.31V119.51"/><path class="d" d="M236.29,1852.83v-609.33c0-26.28,21.3-47.58,47.58-47.58h118.79c14.15,0,25.63-11.47,25.63-25.63V119.13"/><path class="d" d="M245.07,1861.68v-616.84c0-22.13,17.94-40.07,40.07-40.07h118.99c18.19,0,32.94-14.75,32.94-32.94V118.76"/><path class="d" d="M253.85,1870.53v-624.36c0-17.98,14.58-32.56,32.56-32.56h119.18c22.23,0,40.26-18.02,40.26-40.26V118.38"/><path class="d" d="M262.63,1879.38v-631.87c0-13.83,11.22-25.05,25.05-25.05h119.38c26.27,0,47.57-21.3,47.57-47.57V118.01"/><path class="d" d="M271.4,1888.24v-639.38c0-9.69,7.85-17.54,17.54-17.54h119.58c30.31,0,54.89-24.57,54.89-54.89V117.63"/><path class="d" d="M280.18,1897.09v-646.89c0-5.54,4.49-10.03,10.03-10.03h119.77c34.35,0,62.2-27.85,62.2-62.2V117.26"/></g></g></svg>